<?xml version="1.0" encoding="iso-8859-1"?>
<!-- Generator: Adobe Illustrator 19.0.0, SVG Export Plug-In . SVG Version: 6.00 Build 0)  -->
<svg version="1.1" id="Capa_1" xmlns="http://www.w3.org/2000/svg" xmlns:xlink="http://www.w3.org/1999/xlink" x="0px" y="0px"
	 viewBox="0 0 512 512" style="enable-background:new 0 0 512 512;" xml:space="preserve">
<path style="fill:#999999;" d="M475.701,202.384c-5.465-22.441-14.29-43.722-26.33-63.496l21.481-30.073l-67.468-67.469
	l-30.057,21.469c-19.743-12.032-40.991-20.857-63.401-26.334L303.847,0H256l-60,256l60,256h47.567l6.068-36.41
	c22.413-5.445,43.674-14.243,63.434-26.25l30.117,21.513l67.468-67.467l-21.438-30.014c12.066-19.757,20.918-41.026,26.415-63.464
	l36.369-6.06v-95.414L475.701,202.384z"/>
<path style="fill:#B2B2B2;" d="M208.433,0l-6.08,36.48c-22.364,5.465-43.581,14.271-63.294,26.271l-30.245-21.604l-67.468,67.468
	l21.591,30.227c-11.992,19.685-20.798,40.867-26.275,63.201L0,208.152v95.414l36.591,6.099
	c5.446,22.338,14.226,43.534,26.191,63.232l-21.634,30.288l67.468,67.469l30.184-21.56c19.698,12.025,40.902,20.858,63.262,26.354
	L208.153,512H256V0H208.433z"/>
<path style="fill:#595959;" d="M256,75l-59.934,181L256,437c99.963,0,181-81.037,181-181S355.963,75,256,75z"/>
<path style="fill:#7F7F7F;" d="M75,256c0,99.963,81.037,181,181,181V75C156.037,75,75,156.037,75,256z"/>
<path style="fill:#458FDE;" d="M256,120l-45.033,136l60.174,135.167c10.298-1.141,20.249-3.431,29.722-6.74l30.003-14.869
	C367.7,345.224,392,303.45,392,256C392,180.889,331.111,120,256,120z"/>
<path style="fill:#9ACEF3;" d="M120,256c0,47.45,24.301,89.225,61.136,113.558l30.001,14.869c9.559,3.339,19.605,5.641,30.002,6.771
	L256,377V120C180.889,120,120,180.889,120,256z"/>
<path style="fill:#243870;" d="M246.841,376.686L256,392c5.119,0,10.168-0.292,15.14-0.843V225h-24.299L246.841,376.686
	L246.841,376.686z"/>
<path style="fill:#2C4290;" d="M241.14,225v166.189C246.021,391.72,250.977,392,256,392V225H241.14z"/>
<path style="fill:#458FDE;" d="M180,226h-30v51.378l31.14,30v62.171c9.269,6.123,19.331,11.141,30,14.868v-89.795l-31.14-30V226z"/>
<path style="fill:#4A75C3;" d="M256,150l-30,45l30,45c24.853,0,45-20.147,45-45S280.853,150,256,150z"/>
<path style="fill:#458FDE;" d="M211,195c0,24.853,20.147,45,45,45v-90C231.147,150,211,170.147,211,195z"/>
<path style="fill:#4A75C3;" d="M362,226h-30v38.622l-31.14,30v89.795c10.669-3.727,20.731-8.745,30-14.868v-62.171l31.14-30V226z"/>
<g>
</g>
<g>
</g>
<g>
</g>
<g>
</g>
<g>
</g>
<g>
</g>
<g>
</g>
<g>
</g>
<g>
</g>
<g>
</g>
<g>
</g>
<g>
</g>
<g>
</g>
<g>
</g>
<g>
</g>
</svg>
